<svg width="48" height="48" viewBox="0 0 48 48" fill="none" xmlns="http://www.w3.org/2000/svg">
<path fill-rule="evenodd" clip-rule="evenodd" d="M35.5 14H13.5C12.6719 14.0009 12.0009 14.6719 12 15.5V32.5C12.0009 33.3281 12.6719 33.9991 13.5 34H35.5C36.3281 33.9991 36.9991 33.3281 37 32.5V15.5C36.9991 14.6719 36.3281 14.0009 35.5 14ZM19.5 19H15.5C15.2239 19 15 18.7761 15 18.5C15 18.2239 15.2239 18 15.5 18H19.5C19.7761 18 20 18.2239 20 18.5C20 18.7761 19.7761 19 19.5 19ZM21.5 18C21.2239 18 21 18.2239 21 18.5C21 18.7761 21.2239 19 21.5 19H25.5C25.7761 19 26 18.7761 26 18.5C26 18.2239 25.7761 18 25.5 18H21.5ZM26.5 30C25.1193 30 24 28.8807 24 27.5C24 26.1193 25.1193 25 26.5 25C27.8807 25 29 26.1193 29 27.5C29 28.8807 27.8807 30 26.5 30ZM29.2437 29.6489C29.6235 29.8763 30.0574 29.9976 30.5 30C31.8807 30 33 28.8807 33 27.5C33 26.1193 31.8807 25 30.5 25C30.0574 25.0024 29.6235 25.1236 29.2437 25.351C30.2522 26.6062 30.2522 28.3937 29.2437 29.6489Z" fill="#D84727"/>
<path d="M42 15C42 18.3137 39.3137 21 36 21C32.6863 21 30 18.3137 30 15C30 11.6863 32.6863 9 36 9C39.3137 9 42 11.6863 42 15Z" fill="#D84727"/>
<path fill-rule="evenodd" clip-rule="evenodd" d="M36 9.5C32.9624 9.5 30.5 11.9624 30.5 15C30.5 18.0376 32.9624 20.5 36 20.5C39.0376 20.5 41.5 18.0376 41.5 15C41.5 11.9624 39.0376 9.5 36 9.5ZM29.5 15C29.5 11.4101 32.4101 8.5 36 8.5C39.5899 8.5 42.5 11.4101 42.5 15C42.5 18.5899 39.5899 21.5 36 21.5C32.4101 21.5 29.5 18.5899 29.5 15Z" fill="white"/>
<path fill-rule="evenodd" clip-rule="evenodd" d="M39.3 12.6C39.5209 12.7657 39.5657 13.0791 39.4 13.3L36.4 17.3C36.2343 17.5209 35.9209 17.5657 35.7 17.4L33.7 15.9C33.4791 15.7343 33.4343 15.4209 33.6 15.2C33.7657 14.9791 34.0791 14.9343 34.3 15.1L35.9 16.3L38.6 12.7C38.7657 12.4791 39.0791 12.4343 39.3 12.6Z" fill="white"/>
</svg>
